<svg xmlns="http://www.w3.org/2000/svg" xmlns:xlink="http://www.w3.org/1999/xlink"><defs><path id="a" d="M420.74 1236.5a15.72 15.72 0 0 0-8.24-8.24 5.87 5.87 0 0 1 8.24 8.24zm-.24 6.5c0 3.85-1.51 7.34-3.96 9.94l2.03 2.03a1.48 1.48 0 1 1-2.1 2.1l-2.18-2.18a14.42 14.42 0 0 1-16.57 0l-2.16 2.17a1.5 1.5 0 1 1-2.12-2.12l2.01-2.01a14.5 14.5 0 1 1 25.05-9.93zm-14.5-11.5a11.5 11.5 0 1 0 0 23 11.5 11.5 0 0 0 0-23zm6 13h-6a1.5 1.5 0 0 1-1.5-1.5v-8a1.5 1.5 0 0 1 3 0v6.5h4.5a1.5 1.5 0 0 1 0 3zm-20.71-7.8a6 6 0 0 1 8.42-8.42 16.06 16.06 0 0 0-8.42 8.43z"/><path id="a" d="M422.06 1421.89l-14.47 5.99a1.5 1.5 0 0 1-1.18 0l-14.47-6a1.5 1.5 0 0 1-.94-1.38v-23a1.5 1.5 0 0 1 2.07-1.39l.02.01 13.91 5.76 13.91-5.76h.01a1.5 1.5 0 0 1 2.07 1.39v22.99a1.5 1.5 0 0 1-.93 1.39zm-16.56-17.39l-11.5-4.76v19.76l11.5 4.76zm14.5-4.76l-11.5 4.76v19.76l11.5-4.76zm-9.12 6.9l5.5-2.5a1.5 1.5 0 0 1 1.24 2.73l-5.5 2.5a1.5 1.5 0 0 1-1.24-2.73zm0 5.5l5.5-2.5a1.5 1.5 0 0 1 1.24 2.73l-5.5 2.5a1.5 1.5 0 0 1-1.24-2.73zm0 5.5l5.5-2.5a1.5 1.5 0 0 1 1.24 2.73l-5.5 2.5a1.5 1.5 0 0 1-1.24-2.73zM397 1404c.22 0 .43.05.62.13l5.5 2.5a1.5 1.5 0 0 1-1.24 2.74l-5.5-2.5a1.5 1.5 0 0 1 .62-2.87zm0 5.5c.22 0 .43.05.62.13l5.5 2.5a1.5 1.5 0 1 1-1.24 2.73l-5.5-2.5a1.5 1.5 0 0 1 .62-2.86zm0 5.5c.22 0 .43.05.62.13l5.5 2.5a1.5 1.5 0 0 1-1.24 2.74l-5.5-2.5a1.5 1.5 0 0 1 .62-2.87z"/><path id="a" d="M1220 1250h-9.5v2.5l2 2v.5h-13v-.5l2-2v-2.5h-9.5a1.5 1.5 0 0 1-1.5-1.5v-20c0-.83.67-1.5 1.5-1.5h28c.83 0 1.5.67 1.5 1.5v20c0 .83-.67 1.5-1.5 1.5zm-.5-21h-27v17h27zm-16.5 7c.41 0 .79.17 1.06.44l.94.94 2.94-2.94a1.5 1.5 0 1 1 2.12 2.12l-4 4a1.5 1.5 0 0 1-2.12 0l-2-2a1.5 1.5 0 0 1 1.06-2.56z"/><path id="a" d="M822 1412.5a1.5 1.5 0 0 1-2.52 1.1l-13.44-13.44-.04-.04-13.45 13.45a1.5 1.5 0 1 1-2.1-2.15l14.47-14.46a1.5 1.5 0 0 1 1.08-.46h.09a1.97 1.97 0 0 1 .07 0c.37.05.7.22.94.48l5.9 5.9v-1.38a1.5 1.5 0 1 1 3 0v4.38l5.6 5.6c.24.27.4.62.4 1.02zm-3 2.5v10.5c0 .83-.67 1.5-1.5 1.5h-3v-12h-6v12h-14a1.5 1.5 0 0 1-1.5-1.5V1415l13-13zm-15.5 0h-6v6h6z"/><path id="a" d="M1220.5 1428h-29a1.5 1.5 0 0 1-1.5-1.5v-29c0-.83.67-1.5 1.5-1.5h29c.83 0 1.5.67 1.5 1.5v29c0 .83-.67 1.5-1.5 1.5zm-1.5-29h-26v26h26zm-17 1.5a1.5 1.5 0 0 1 0 3h-4.5v4.5a1.5 1.5 0 1 1-3 0v-7.5zm-7.5 15.5a1.5 1.5 0 1 1 3 0v4.5h4.5a1.5 1.5 0 1 1 0 3h-7.5zm15.5-15.5h7.5v7.5a1.5 1.5 0 1 1-3 0v-4.5h-4.5a1.5 1.5 0 1 1 0-3zm0 20h4.5v-4.5a1.5 1.5 0 0 1 3 0v7.5h-7.5a1.5 1.5 0 0 1 0-3z"/><path id="a" d="M821.5 1258h-29a1.5 1.5 0 0 1-1.5-1.5v-29c0-.83.67-1.5 1.5-1.5h29c.83 0 1.5.67 1.5 1.5v29c0 .83-.67 1.5-1.5 1.5zm-1.5-29h-26v26h26zm-23.78 13.24l4-2.5a1.5 1.5 0 0 1 1.62.03l6.64 4.42 7.63-5.4c.25-.18.56-.28.89-.28a1.5 1.5 0 0 1 .88 2.71l-8.5 6a1.5 1.5 0 0 1-1.74.01l-6.66-4.43-3.13 1.95a1.5 1.5 0 0 1-1.63-2.52z"/><path id="a" d="M1561.8 52.15a1.65 1.65 0 0 1-2.82 1.17l-4.83-4.84a6.6 6.6 0 1 1 2.33-2.33l4.84 4.83c.3.3.48.71.48 1.17zm-11-14.3a4.95 4.95 0 1 0 0 9.9 4.95 4.95 0 0 0 0-9.9z"/><path id="a" d="M1501.73 40.66l-2.48 5.5a.82.82 0 0 1-.7.49l-7.12.47.4 1.18h7.77a1.65 1.65 0 1 1-1.65 1.65h-7.7a1.65 1.65 0 1 1-1.65-1.65h1.5l-3.19-9.08h-1.89a.83.83 0 0 1 0-1.65h2.48c.36 0 .66.24.78.56l.48 1.37h12.21a.82.82 0 0 1 .76 1.16zm-12.4.49l1.53 4.36 7.1-.48 1.74-3.88z"/>
<symbol id="icon-icon-facebook" viewBox="0 0 16 32">
<title>icon-facebook</title>
<path d="M14.879 0.245c0 1.817 0 5.072 0 5.072s-3.738-0.373-4.674 1.060c-0.512 0.783-0.208 3.077-0.254 4.724 1.632 0 3.327 0 4.959 0-0.418 1.925-0.719 3.23-1.028 4.896-1.412 0-3.958 0-3.958 0v15.759c0 0-4.673 0-6.87 0 0.001-4.858-0.001-10.526 0-15.697-1.067 0-1.856 0-2.923 0 0-1.817 0-3.14 0-4.958 1.035 0 1.855 0 2.891 0 0.148-3.626 0.203-7.217 2.005-9.046 2.023-2.057 3.954-1.809 9.852-1.809z"/>
</symbol>
<symbol id="icon-icon-instagram" viewBox="0 0 32 32">
<title>icon-instagram</title>
<path d="M27.938 31.754h-23.631c-2.175 0-3.938-1.764-3.938-3.94v-23.63c0-2.176 1.764-3.94 3.938-3.94h23.631c2.175 0 3.938 1.764 3.938 3.94v23.63c0 2.176-1.764 3.94-3.938 3.94zM16.123 9.894c-2.457 0-4.567 1.455-5.536 3.545h-0.006c-0.010 0.022-0.017 0.046-0.027 0.068-0.058 0.129-0.108 0.262-0.158 0.395-0.023 0.065-0.049 0.128-0.070 0.192-0.046 0.138-0.082 0.277-0.117 0.418-0.017 0.065-0.037 0.13-0.052 0.197-0.032 0.149-0.054 0.3-0.075 0.453-0.009 0.062-0.021 0.122-0.028 0.185-0.022 0.214-0.036 0.432-0.036 0.654 0 3.371 2.734 6.103 6.105 6.103s6.105-2.732 6.105-6.103c0-0.222-0.014-0.439-0.036-0.654-0.007-0.063-0.020-0.123-0.028-0.185-0.021-0.153-0.043-0.304-0.075-0.453-0.015-0.066-0.034-0.132-0.052-0.197-0.034-0.142-0.071-0.281-0.117-0.418-0.021-0.064-0.047-0.127-0.070-0.192-0.049-0.133-0.1-0.266-0.158-0.395-0.010-0.022-0.017-0.046-0.027-0.068h-0.006c-0.969-2.090-3.079-3.545-5.536-3.545zM28.332 5.365c0-0.87-0.705-1.574-1.575-1.574h-3.151c-0.87 0-1.575 0.704-1.575 1.574v3.152c0 0.87 0.705 1.575 1.575 1.575h3.151c0.87 0 1.575-0.705 1.575-1.575v-3.152zM28.332 13.439h-2.905c0.224 0.816 0.345 1.675 0.345 2.561 0 5.329-4.32 9.648-9.649 9.648s-9.649-4.319-9.649-9.648c0-0.886 0.121-1.745 0.345-2.561h-2.905v13.194c0 0.871 0.705 1.577 1.575 1.577h21.268c0.87 0 1.575-0.705 1.575-1.577v-13.194z"/>
</symbol>
<symbol id="icon-icon-pinterest" viewBox="0 0 26 32">
<title>icon-pinterest</title>
<path d="M11.14 20.743c-0.257 1.025-0.517 2.1-0.785 3.151-0.265 1.036-0.498 2.087-0.884 3.040-0.639 1.577-1.45 3.1-2.514 4.334-0.708 0.821-0.558 0.494-0.77 0.449-0.162-0.034-0.176-0.193-0.208-0.425-0.174-1.253-0.055-2.702 0.009-4.11 0.074-1.605 0.411-2.939 0.725-4.272 0.596-2.54 1.164-5.030 1.766-7.586 0.039-0.17 0.148-0.45 0.111-0.548-0.273-0.71-0.45-1.348-0.528-2.094-0.090-0.855-0.021-1.654 0.171-2.391 0.341-1.302 1.124-2.455 2.331-2.878 0.768-0.266 1.618-0.145 2.135 0.162 0.532 0.319 0.897 0.821 1.067 1.534 0.182 0.757 0.048 1.663-0.098 2.327-0.329 1.5-0.761 2.626-1.153 4.074-0.194 0.718-0.415 1.455-0.233 2.23 0.167 0.711 0.538 1.201 1.042 1.569 0.524 0.382 1.145 0.59 2 0.56 1.511-0.053 2.561-1.019 3.263-1.93 1.124-1.458 1.803-3.426 2.062-5.767 0.082-0.756 0.144-1.623 0.086-2.479-0.108-1.58-0.602-2.852-1.387-3.836-0.746-0.939-1.804-1.685-3.092-2.106-1.276-0.416-3.042-0.555-4.612-0.287-2.853 0.489-4.864 2.11-6.049 4.348-0.62 1.172-1.030 2.519-1.030 4.197 0 1.294 0.319 2.295 0.834 3.077 0.164 0.247 0.404 0.452 0.564 0.735 0.228 0.401-0.034 0.998-0.146 1.433-0.135 0.523-0.15 1.246-0.761 1.258-0.254 0.005-0.571-0.18-0.785-0.299-1.606-0.887-2.581-2.502-2.981-4.596-0.244-1.273-0.242-2.756 0-3.985 0.234-1.19 0.67-2.287 1.153-3.177 1.002-1.85 2.47-3.329 4.257-4.385 1.374-0.812 2.923-1.382 4.809-1.657 0.625-0.091 1.273-0.129 1.975-0.162 2.053-0.096 3.919 0.369 5.324 0.997 1.483 0.663 2.667 1.546 3.668 2.641 1.031 1.126 1.782 2.436 2.257 4.073 0.249 0.852 0.49 1.762 0.49 2.815 0 1.056-0.223 1.985-0.379 2.914-0.583 3.481-2.239 6.327-4.724 7.948-0.602 0.391-1.33 0.754-2.159 0.996-0.821 0.239-1.758 0.418-2.761 0.348-0.974-0.066-1.771-0.331-2.441-0.71-0.665-0.375-1.223-0.836-1.62-1.531z"/>
</symbol>
<symbol id="icon-icon-twitter" viewBox="0 0 38 32">
<title>icon-twitter</title>
<path d="M25.473 0.874c2.959-0.052 4.534 1.025 6.038 2.396 1.277-0.109 2.937-0.822 3.914-1.319 0.316-0.172 0.633-0.346 0.95-0.519-0.559 1.508-1.315 2.689-2.479 3.587-0.259 0.198-0.515 0.467-0.839 0.593 0 0.006 0 0.013 0 0.019 1.658-0.016 3.025-0.765 4.324-1.171 0 0.006 0 0.013 0 0.019-0.682 1.084-1.606 2.185-2.591 2.973-0.397 0.316-0.796 0.631-1.193 0.947 0.022 1.756-0.026 3.431-0.353 4.906-1.908 8.575-6.964 14.396-14.966 16.89-2.874 0.895-7.517 1.263-10.81 0.445-1.632-0.404-3.107-0.863-4.49-1.468-0.769-0.336-1.482-0.7-2.163-1.116-0.224-0.135-0.447-0.272-0.671-0.407 0.742 0.022 1.612 0.227 2.441 0.092 0.752-0.121 1.488-0.089 2.182-0.24 1.728-0.38 3.263-0.881 4.583-1.655 0.641-0.375 1.615-0.815 2.070-1.356-0.858 0.015-1.636-0.185-2.273-0.409-2.471-0.873-3.91-2.477-4.847-4.887 0.749 0.083 2.906 0.278 3.411-0.148-0.943-0.052-1.849-0.598-2.497-1.004-1.988-1.244-3.609-3.329-3.597-6.54 0.262 0.124 0.522 0.247 0.783 0.371 0.5 0.211 1.008 0.323 1.603 0.447 0.252 0.052 0.755 0.199 1.044 0.092-0.013 0-0.025 0-0.038 0-0.384-0.447-1.011-0.745-1.398-1.226-1.276-1.584-2.47-4.023-1.715-6.929 0.192-0.737 0.496-1.388 0.82-1.988 0.013 0.006 0.025 0.012 0.038 0.017 0.148 0.311 0.48 0.54 0.689 0.8 0.652 0.807 1.455 1.533 2.273 2.173 2.79 2.182 5.302 3.523 9.337 4.515 1.024 0.253 2.207 0.445 3.43 0.447-0.343-0.999-0.233-2.618 0.036-3.585 0.681-2.435 2.157-4.188 4.324-5.129 0.518-0.224 1.092-0.388 1.696-0.521 0.311-0.036 0.621-0.074 0.932-0.111z"/>
</symbol>
<symbol id="icon-magnifying-glass" viewBox="0 0 32 32">
<title>magnifying-glass</title>
<path d="M30.080 27.44c0 0.003 0 0.007 0 0.011 0 1.458-1.182 2.64-2.64 2.64-0.732 0-1.394-0.298-1.872-0.778l-0-0-7.728-7.744c-1.535 0.921-3.387 1.465-5.367 1.465-5.832 0-10.56-4.728-10.56-10.56s4.728-10.56 10.56-10.56c5.832 0 10.56 4.728 10.56 10.56 0 1.979-0.545 3.831-1.492 5.415l0.027-0.048 7.744 7.728c0.48 0.48 0.768 1.136 0.768 1.872zM12.48 4.56c-4.374 0-7.92 3.546-7.92 7.92s3.546 7.92 7.92 7.92v0c4.374 0 7.92-3.546 7.92-7.92s-3.546-7.92-7.92-7.92v0z"/>
</symbol>
<symbol id="icon-shopping-cart" viewBox="0 0 38 32">
<title>shopping-cart</title>
<path d="M35.256 8.772l-4.668 10.353c-0.231 0.52-0.728 0.884-1.313 0.922l-0.005 0-13.402 0.885 0.753 2.221h14.626c1.715 0 3.106 1.391 3.106 3.106s-1.391 3.106-3.106 3.106c-1.715 0-3.106-1.391-3.106-3.106v0h-14.494c0 1.715-1.391 3.106-3.106 3.106s-3.106-1.391-3.106-3.106c0-1.715 1.391-3.106 3.106-3.106v0h2.824l-6.005-17.092h-3.558c-0.786-0.089-1.391-0.75-1.391-1.553s0.605-1.464 1.384-1.552l0.007-0.001h4.668c0.678 0 1.242 0.452 1.468 1.054l0.904 2.579h22.984c0.008-0 0.017-0 0.026-0 0.852 0 1.544 0.691 1.544 1.544 0 0.232-0.051 0.452-0.143 0.65l0.004-0.010zM11.915 9.694l2.88 8.207 13.365-0.904 3.275-7.304z"/>
</symbol>
</defs><symbol id="alarm"><use fill="#95e1d3" xlink:href="#a" transform="translate(-389 -1225)"/></symbol><symbol id="book-2"><use fill="#95e1d3" xlink:href="#a" transform="translate(-389 -1395)"/></symbol><symbol id="computer-ok"><use fill="#95e1d3" xlink:href="#a" transform="translate(-1189 -1225)"/></symbol><symbol id="home"><use fill="#95e1d3" xlink:href="#a" transform="translate(-788 -1395)"/></symbol><symbol id="icon-search">
<path fill-rule="evenodd" fill="rgb(255, 255, 255)" d="M17.317,14.983 C17.615,15.281 17.800,15.694 17.800,16.150 C17.800,17.061 17.061,17.800 16.150,17.800 C15.694,17.800 15.282,17.615 14.983,17.316 L14.983,17.316 L10.147,12.481 C9.165,13.061 8.023,13.400 6.800,13.400 C3.155,13.400 0.200,10.445 0.200,6.800 C0.200,3.155 3.155,0.200 6.800,0.200 C10.445,0.200 13.400,3.155 13.400,6.800 C13.400,8.023 13.061,9.165 12.481,10.147 L17.317,14.983 L17.317,14.983 ZM6.800,1.849 C4.066,1.849 1.850,4.066 1.850,6.800 C1.850,9.534 4.066,11.750 6.800,11.750 C9.534,11.750 11.750,9.534 11.750,6.800 C11.750,4.066 9.534,1.849 6.800,1.849 Z"/>
</symbol><symbol id="image"><use fill="#95e1d3" xlink:href="#a" transform="translate(-1188 -1395)"/></symbol><symbol id="line-graph"><use fill="#95e1d3" xlink:href="#a" transform="translate(-790 -1224)"/></symbol><symbol id="magnifying-glass"><use fill="#fff" xlink:href="#a" transform="translate(-1543 -35)"/></symbol><symbol id="shopping-cart"><use fill="#fff" xlink:href="#a" transform="translate(-1483 -36)"/></symbol><symbol id="symbol-defs">

</symbol></svg>